<svg width="256" height="256" viewBox="0 0 256 256" xmlns="http://www.w3.org/2000/svg">
  <path
    d="
      M128 20
      C134 20 139 32 146.7 33.8
      C154.4 35.6 163.6 25.8 169.3 28.2
      C175.1 30.6 175.5 44.3 181.3 48.2
      C187.2 52.1 200 47.2 204.4 51.6
      C208.8 56 203.9 68.8 207.8 74.7
      C211.7 80.5 225.4 80.9 227.8 86.7
      C230.2 92.4 220.4 101.6 222.2 109.3
      C224 117 236 122 236 128
      C236 134 224 139 222.2 146.7
      C220.4 154.4 230.2 163.6 227.8 169.3
      C225.4 175.1 211.7 175.5 207.8 181.3
      C203.9 187.2 208.8 200 204.4 204.4
      C200 208.8 187.2 203.9 181.3 207.8
      C175.5 211.7 175.1 225.4 169.3 227.8
      C163.6 230.2 154.4 220.4 146.7 222.2
      C139 224 134 236 128 236
      C122 236 117 224 109.3 222.2
      C101.6 220.4 92.4 230.2 86.7 227.8
      C80.9 225.4 80.5 211.7 74.7 207.8
      C68.8 203.9 56 208.8 51.6 204.4
      C47.2 200 52.1 187.2 48.2 181.3
      C44.3 175.5 30.6 175.1 28.2 169.3
      C25.8 163.6 35.6 154.4 33.8 146.7
      C32 139 20 134 20 128
      C20 122 32 117 33.8 109.3
      C35.6 101.6 25.8 92.4 28.2 86.7
      C30.6 80.9 44.3 80.5 48.2 74.7
      C52.1 68.8 47.2 56 51.6 51.6
      C56 47.2 68.8 52.1 74.7 48.2
      C80.5 44.3 80.9 30.6 86.7 28.2
      C92.4 25.8 101.6 35.6 109.3 33.8
      C117 32 122 20 128 20
      Z
    "
    fill="#000000"
  />
</svg>
