<svg width="256" height="256" viewBox="0 0 256 256" xmlns="http://www.w3.org/2000/svg">
  <!--
    Static wavy-mask used as a CSS mask in .hero__avatar-reveal.
    SVGs referenced from CSS mask:/background: run in a restricted, script-free
    mode, so the path below is pre-baked. To re-shape it, edit the config in
    scripts/regenerate-wavy-mask.mjs and run:
      node scripts/regenerate-wavy-mask.mjs

    config = {
      apexCount: 16, centerX: 128, centerY: 128,
      outerRadius: 112, innerRadius: 95,
      apexRoundness: 1.5, valleyRoundness: 0.55, rotation: -90
    }
  -->
  <path id="badge" fill="#000000" d="M 141.344 29.554 L 141.641 29.855 Q 146.534 34.825 152.956 32.106 L 153.345 31.941 Q 170.861 24.525 178.002 42.155 L 178.161 42.546 Q 180.779 49.010 187.753 48.956 L 188.176 48.953 Q 207.196 48.804 207.047 67.824 L 207.044 68.247 Q 206.990 75.221 213.454 77.839 L 213.845 77.998 Q 231.475 85.139 224.059 102.655 L 223.894 103.044 Q 221.175 109.466 226.145 114.359 L 226.446 114.656 Q 240.000 128.000 226.446 141.344 L 226.145 141.641 Q 221.175 146.534 223.894 152.956 L 224.059 153.345 Q 231.475 170.861 213.845 178.002 L 213.454 178.161 Q 206.990 180.779 207.044 187.753 L 207.047 188.176 Q 207.196 207.196 188.176 207.047 L 187.753 207.044 Q 180.779 206.990 178.161 213.454 L 178.002 213.845 Q 170.861 231.475 153.345 224.059 L 152.956 223.894 Q 146.534 221.175 141.641 226.145 L 141.344 226.446 Q 128.000 240.000 114.656 226.446 L 114.359 226.145 Q 109.466 221.175 103.044 223.894 L 102.655 224.059 Q 85.139 231.475 77.998 213.845 L 77.839 213.454 Q 75.221 206.990 68.247 207.044 L 67.824 207.047 Q 48.804 207.196 48.953 188.176 L 48.956 187.753 Q 49.010 180.779 42.546 178.161 L 42.155 178.002 Q 24.525 170.861 31.941 153.345 L 32.106 152.956 Q 34.825 146.534 29.855 141.641 L 29.554 141.344 Q 16.000 128.000 29.554 114.656 L 29.855 114.359 Q 34.825 109.466 32.106 103.044 L 31.941 102.655 Q 24.525 85.139 42.155 77.998 L 42.546 77.839 Q 49.010 75.221 48.956 68.247 L 48.953 67.824 Q 48.804 48.804 67.824 48.953 L 68.247 48.956 Q 75.221 49.010 77.839 42.546 L 77.998 42.155 Q 85.139 24.525 102.655 31.941 L 103.044 32.106 Q 109.466 34.825 114.359 29.855 L 114.656 29.554 Q 128.000 16.000 141.344 29.554 Z"/>
</svg>
